<?xml version="1.0" encoding="UTF-8"?>
<svg width="752pt" height="752pt" version="1.1" viewBox="0 0 752 752" xmlns="http://www.w3.org/2000/svg">
 <path d="m376 169.99c-113.66 0-206.01 92.352-206.01 206.01 0 113.66 92.352 206.01 206.01 206.01 113.66 0 206.01-92.348 206.01-206.01 0-113.66-92.348-206.01-206.01-206.01zm66.305 214.06-113.66 51.148c-7.1055 3.3164-14.68-4.2617-11.84-11.367l19.418-44.516c0.94531-2.3672 0.94531-4.7344 0-7.1055l-19.418-44.516c-3.3164-7.5781 4.2617-14.68 11.84-11.367l113.66 51.148c7.1016 3.7891 7.1016 13.262 0 16.574z"/>
</svg>
